<?xml version="1.0" standalone="no"?>
<!DOCTYPE svg PUBLIC "-//W3C//DTD SVG 20010904//EN"
 "http://www.w3.org/TR/2001/REC-SVG-20010904/DTD/svg10.dtd">
<svg version="1.0" xmlns="http://www.w3.org/2000/svg"
 width="192.000000pt" height="192.000000pt" viewBox="0 0 192.000000 192.000000"
 preserveAspectRatio="xMidYMid meet">
<metadata>
Created by potrace 1.14, written by Peter Selinger 2001-2017
</metadata>
<g transform="translate(0.000000,192.000000) scale(0.100000,-0.100000)"
fill="#000000" stroke="none">
<path d="M743 1564 c-99 -12 -124 -18 -170 -42 -37 -19 -58 -53 -55 -89 3 -43
21 -55 74 -52 26 2 50 0 53 -3 3 -3 -15 -58 -40 -122 -40 -104 -115 -328 -174
-518 -29 -94 -48 -179 -46 -206 1 -12 -2 -22 -7 -22 -4 0 -8 -4 -8 -8 0 -5 14
-9 30 -9 l30 0 -21 23 c-15 16 -17 24 -8 29 7 5 10 4 7 -1 -3 -5 5 -20 17 -32
l23 -24 0 26 c0 14 -4 23 -8 21 -4 -3 -11 2 -14 10 -4 13 -2 13 14 5 25 -14
28 -13 26 8 0 10 5 16 13 14 9 -2 11 3 7 13 -3 10 -2 13 4 10 6 -4 9 -14 8
-22 -2 -9 3 -18 11 -21 8 -3 11 0 7 7 -4 6 -2 11 3 11 6 0 11 -5 11 -12 0 -16
13 -1 16 18 2 10 -3 13 -17 9 -13 -4 -19 -2 -19 9 0 9 -4 16 -10 16 -5 0 -10
5 -10 11 0 6 5 7 13 2 6 -4 21 -8 32 -8 11 0 19 -6 18 -12 -4 -20 11 -15 25 8
10 16 10 20 0 18 -29 -3 -37 2 -34 24 2 24 25 69 26 50 0 -6 -5 -15 -11 -19
-8 -4 -7 -9 2 -15 12 -8 12 -10 0 -18 -8 -5 -9 -11 -3 -15 11 -6 26 21 23 41
-1 7 3 13 9 13 6 0 8 -4 5 -10 -3 -5 -2 -10 3 -10 6 0 13 7 16 16 9 22 8 24
-10 17 -10 -4 -17 1 -21 15 -3 12 -11 18 -18 16 -7 -3 -15 -1 -19 4 -3 5 5 8
17 7 12 -1 23 -9 25 -18 5 -23 15 -21 27 6 6 12 16 22 23 22 8 0 19 8 27 18
12 17 50 14 39 -4 -3 -5 2 -6 11 -3 12 5 7 13 -21 35 -20 16 -31 29 -24 29 6
0 21 -10 32 -22 18 -21 19 -21 13 -3 -4 11 -9 27 -12 36 -3 11 -12 15 -26 13
-21 -4 -21 -4 -2 5 24 10 35 5 35 -15 0 -8 4 -12 10 -9 6 3 7 -1 4 -10 -4 -10
-2 -14 8 -10 17 7 18 57 0 63 -8 2 -10 -3 -6 -15 5 -15 4 -15 -5 -3 -14 20 4
39 21 22 16 -16 28 -15 28 2 0 8 5 18 12 22 8 5 9 2 5 -9 -3 -10 -2 -17 3 -17
6 0 10 6 11 13 0 6 2 19 4 27 2 8 6 25 9 38 3 12 8 27 11 32 4 6 1 18 -6 26
-10 12 -9 13 7 8 10 -4 16 -4 12 1 -4 4 0 21 8 37 9 16 13 36 10 44 -3 8 0 14
5 14 7 0 9 11 7 25 -3 15 -1 22 5 18 6 -4 8 2 5 15 -4 12 -3 20 1 18 3 -2 19
42 35 97 16 56 33 107 38 114 11 14 47 13 65 -2 7 -5 19 -16 27 -22 8 -7 23
-10 33 -7 14 5 15 4 4 -4 -7 -5 -10 -15 -6 -21 5 -9 11 -9 23 1 15 12 16 11 3
-4 -8 -11 -10 -25 -6 -35 11 -25 12 -157 2 -164 -5 -3 -9 -12 -11 -20 -1 -8
-7 -23 -13 -34 -5 -11 -8 -26 -5 -34 3 -9 0 -11 -8 -6 -9 5 -11 4 -6 -4 4 -6
0 -14 -8 -17 -9 -3 -16 -11 -16 -17 0 -6 3 -7 7 -4 3 4 12 -1 18 -10 11 -14
17 -15 36 -5 23 11 22 11 -6 5 l-30 -6 29 30 c16 17 35 29 42 26 22 -8 25 15
4 35 -19 18 -20 20 -3 33 15 12 16 12 10 -3 -3 -10 -2 -18 3 -18 6 0 10 6 10
14 0 8 7 17 16 20 23 9 26 8 18 -6 -6 -10 -4 -10 7 0 20 19 31 14 17 -7 -7
-11 -16 -17 -20 -15 -5 3 -11 -2 -14 -10 -3 -9 -11 -13 -16 -10 -6 4 -5 -3 1
-15 14 -25 23 -28 14 -4 -4 11 -3 14 5 9 8 -5 10 -1 5 10 -4 12 -3 15 5 10 7
-4 15 -1 18 8 3 9 10 14 14 11 5 -3 7 3 6 12 -2 10 -9 18 -17 18 -8 0 -20 4
-26 8 -8 5 -13 3 -13 -4 0 -16 -13 -3 -16 16 -3 17 5 19 25 6 16 -11 41 -4 41
11 0 7 -5 6 -14 -1 -11 -9 -15 -8 -20 5 -8 20 8 51 18 35 4 -6 2 -11 -3 -11
-6 0 -11 -5 -11 -11 0 -8 5 -7 15 1 19 16 27 8 28 -25 0 -14 4 -28 10 -32 6
-3 7 -1 3 5 -4 7 -4 17 0 24 5 8 10 6 16 -8 7 -16 8 -17 5 -1 -1 10 -6 17 -12
17 -11 -2 -25 31 -18 43 3 4 13 -1 23 -13 9 -11 19 -20 22 -20 8 0 6 35 -4 47
-5 7 -5 14 0 17 6 3 12 -1 16 -9 3 -8 10 -15 16 -15 5 0 2 9 -7 19 -9 11 -20
18 -25 15 -4 -3 -8 2 -8 11 0 10 5 13 13 9 9 -6 8 -3 -1 9 -12 14 -11 16 7 14
14 -1 19 -6 16 -17 -6 -20 9 -44 25 -38 16 5 22 38 8 38 -6 0 -8 -7 -4 -15 6
-17 -9 -21 -20 -4 -10 18 22 45 38 31 9 -7 19 -8 28 -2 11 7 11 10 3 11 -28 3
-32 4 -39 12 -4 4 -2 7 5 7 7 0 9 5 6 10 -3 6 0 10 7 10 7 1 2 7 -12 15 -14 8
-19 14 -12 15 22 0 -79 99 -115 112 -18 7 -33 16 -33 21 0 5 -7 7 -15 3 -8 -3
-15 -2 -15 3 0 10 -91 39 -148 47 -75 10 -178 10 -269 -2z m422 -83 c3 -5 2
-12 -3 -15 -5 -3 -9 1 -9 9 0 17 3 19 12 6z m147 -83 c-1 -5 3 -8 8 -8 6 0 9
-3 9 -7 -3 -20 2 -34 11 -28 6 4 5 -5 -2 -19 -6 -14 -15 -26 -20 -26 -11 0
-10 14 2 26 6 6 5 15 -1 24 -9 12 -10 11 -5 -5 6 -19 5 -19 -8 -2 -12 16 -14
16 -20 2 -4 -11 -2 -14 6 -9 7 5 8 3 3 -6 -5 -9 -4 -11 3 -6 8 5 10 1 5 -9 -4
-12 -8 -13 -13 -5 -8 13 -23 -3 -27 -29 -1 -7 -7 -19 -13 -25 -8 -8 -9 -6 -5
9 5 16 5 17 -3 5 -14 -18 -6 -31 15 -23 10 4 14 2 9 -5 -3 -6 -2 -13 4 -17 5
-3 10 -11 10 -17 0 -6 -8 -4 -18 5 -12 11 -22 13 -34 6 -10 -6 -19 -6 -23 0
-10 18 -33 0 -31 -23 2 -16 -2 -23 -13 -22 -11 1 -15 -7 -14 -26 2 -25 1 -26
-15 -10 -10 9 -14 19 -9 21 5 2 3 7 -4 12 -10 6 -11 9 -1 9 6 0 12 5 12 11 0
5 -4 7 -10 4 -5 -3 -10 -1 -10 4 0 16 20 13 26 -4 5 -11 9 -12 19 -2 7 7 11
16 8 21 -3 4 -8 4 -12 -2 -4 -7 -13 -5 -26 5 -19 15 -19 15 5 8 22 -7 23 -6
11 8 -7 9 -18 14 -24 10 -6 -3 -7 -1 -3 5 4 6 14 9 24 6 14 -5 14 -3 -2 10
-29 24 -9 19 26 -5 39 -28 48 -17 9 12 -31 23 -48 49 -31 49 6 0 10 -8 10 -17
1 -16 2 -16 16 2 16 20 16 20 10 -1 -4 -14 -1 -26 10 -35 15 -12 16 -11 10 9
-6 17 -3 22 9 22 9 0 13 5 10 10 -4 6 -11 8 -16 5 -5 -4 -9 -1 -9 5 0 7 7 10
15 6 24 -9 17 11 -12 32 -19 14 -23 21 -13 27 9 5 11 4 6 -3 -4 -7 -1 -12 8
-12 9 0 16 -5 16 -10 0 -6 8 -5 19 2 23 14 18 30 -7 22 -14 -5 -15 -4 -2 5 9
6 18 7 24 1 16 -16 30 -11 16 5 -7 8 -9 15 -5 15 4 0 16 -11 27 -26 11 -14 23
-23 25 -20 9 8 -37 65 -50 62 -7 -1 -9 -1 -4 1 4 3 7 9 7 14 0 6 -5 7 -12 3
-7 -4 -8 -3 -4 5 5 8 17 1 39 -21 17 -18 30 -36 29 -40z m-89 20 c-2 -5 -10
-8 -18 -8 -8 0 -16 3 -18 8 -3 4 5 7 18 7 13 0 21 -3 18 -7z m-93 -12 c0 -2
-7 -7 -16 -10 -8 -3 -12 -2 -9 4 6 10 25 14 25 6z m40 0 c0 -2 -7 -7 -16 -10
-8 -3 -12 -2 -9 4 6 10 25 14 25 6z m15 -56 c-3 -5 -16 -10 -28 -9 -20 1 -20
2 3 9 14 4 26 8 28 9 2 1 0 -3 -3 -9z m-61 -36 c3 -8 2 -12 -4 -9 -6 3 -10 10
-10 16 0 14 7 11 14 -7z m6 -171 c0 -3 -7 -14 -16 -24 -14 -16 -13 -19 8 -39
18 -18 19 -21 5 -17 -12 4 -25 -2 -39 -18 -12 -14 -26 -25 -32 -25 -5 0 1 11
14 25 14 15 18 25 11 25 -10 0 -9 6 3 25 9 14 14 25 10 25 -4 0 -1 7 6 15 13
15 30 20 30 8z m-287 -58 c-3 -9 -8 -14 -10 -11 -3 3 -2 9 2 15 9 16 15 13 8
-4z m-116 -40 c0 -8 -4 -12 -9 -9 -5 3 -6 10 -3 15 9 13 12 11 12 -6z m38 -24
c3 -5 2 -12 -3 -15 -5 -3 -9 1 -9 9 0 17 3 19 12 6z m-1 -39 c3 -5 -1 -9 -9
-9 -8 0 -12 4 -9 9 3 4 7 8 9 8 2 0 6 -4 9 -8z m41 -2 c-3 -5 -12 -10 -18 -10
-7 0 -6 4 3 10 19 12 23 12 15 0z m-105 -16 c0 -8 -19 -13 -24 -6 -3 5 1 9 9
9 8 0 15 -2 15 -3z m73 -48 c-10 -13 -20 -22 -22 -20 -3 3 3 12 12 21 15 15
15 17 -1 30 -15 13 -14 13 6 3 22 -11 22 -12 5 -34z m-85 -1 c-3 -3 -9 2 -12
12 -6 14 -5 15 5 6 7 -7 10 -15 7 -18z m-25 -30 c-3 -9 -8 -14 -10 -11 -3 3
-2 9 2 15 9 16 15 13 8 -4z m-18 -24 c3 -5 2 -12 -3 -15 -5 -3 -9 1 -9 9 0 17
3 19 12 6z m-75 -61 c0 -5 -4 -10 -10 -10 -5 0 -10 5 -10 10 0 6 5 10 10 10 6
0 10 -4 10 -10z m68 -3 c7 -5 12 -4 12 2 0 6 5 11 10 11 6 0 5 -8 -2 -20 -11
-16 -14 -17 -21 -5 -4 9 -12 13 -17 10 -5 -3 -11 -1 -14 4 -7 11 13 9 32 -2z
m-28 -32 c0 -8 -4 -15 -8 -15 -5 0 -9 7 -9 15 0 8 4 15 9 15 4 0 8 -7 8 -15z
m-83 -10 c0 -8 -4 -12 -9 -9 -5 3 -6 10 -3 15 9 13 12 11 12 -6z m16 -56 c-8
-8 -13 -7 -18 2 -5 8 -4 10 3 5 7 -4 12 -2 12 5 0 7 3 9 7 6 4 -4 2 -12 -4
-18z m-96 -14 c0 -8 -4 -15 -9 -15 -10 0 -11 14 -1 23 9 10 10 9 10 -8z m53
-19 c0 -2 -9 -6 -20 -9 -11 -3 -18 -1 -14 4 5 9 34 13 34 5z m30 -6 c0 -5 -2
-10 -4 -10 -3 0 -8 5 -11 10 -3 6 -1 10 4 10 6 0 11 -4 11 -10z m-84 -20 c0
-12 -4 -16 -9 -11 -5 5 -6 14 -3 20 10 15 12 14 12 -9z m74 0 c8 -5 11 -10 5
-10 -5 0 -17 5 -25 10 -8 5 -10 10 -5 10 6 0 17 -5 25 -10z m-90 -35 c7 -9 8
-15 2 -15 -5 0 -12 7 -16 15 -3 8 -4 15 -2 15 2 0 9 -7 16 -15z m40 -5 c0 -5
-4 -10 -10 -10 -5 0 -10 5 -10 10 0 6 5 10 10 10 6 0 10 -4 10 -10z"/>
<path d="M1246 1373 c-19 -10 -25 -18 -18 -25 13 -13 35 0 26 15 -4 7 -3 8 1
4 13 -11 15 -38 3 -31 -6 4 -8 2 -5 -4 5 -6 0 -8 -13 -5 -16 4 -18 1 -15 -17
3 -14 0 -20 -8 -17 -9 3 -13 -5 -12 -24 0 -16 4 -29 8 -29 4 0 10 0 14 0 4 0
2 5 -4 11 -13 13 15 52 30 42 6 -3 7 -1 4 4 -4 6 -1 16 7 22 8 7 13 20 11 29
-1 9 2 20 7 23 22 14 -9 16 -36 2z"/>
<path d="M1152 1251 c2 -7 7 -12 11 -12 12 1 9 15 -3 20 -7 2 -11 -2 -8 -8z"/>
<path d="M1368 1253 c-21 -5 -23 -19 -5 -29 6 -4 9 -4 5 1 -4 4 0 14 10 21 18
14 17 14 -10 7z"/>
<path d="M1310 1210 c-9 -6 -10 -10 -3 -10 6 0 15 5 18 10 8 12 4 12 -15 0z"/>
<path d="M1299 1188 c-5 -18 -6 -39 -2 -34 4 3 11 1 18 -4 8 -7 12 -5 12 5 0
7 -5 13 -11 12 -6 -1 -10 4 -8 11 2 10 -6 19 -9 10z"/>
<path d="M1250 1130 c-9 -6 -10 -10 -3 -10 6 0 15 5 18 10 8 12 4 12 -15 0z"/>
<path d="M1327 1119 c7 -7 15 -10 18 -7 3 3 -2 9 -12 12 -14 6 -15 5 -6 -5z"/>
<path d="M1236 1093 c-6 -14 -5 -15 5 -6 7 7 10 15 7 18 -3 3 -9 -2 -12 -12z"/>
<path d="M1299 1073 c-13 -16 -12 -17 4 -4 16 13 21 21 13 21 -2 0 -10 -8 -17
-17z"/>
<path d="M1195 1061 c-3 -5 -2 -12 3 -15 5 -3 9 1 9 9 0 17 -3 19 -12 6z"/>
<path d="M1229 1058 c11 -15 11 -21 0 -35 -12 -17 -12 -17 6 0 19 17 19 17 0
35 -18 16 -18 16 -6 0z"/>
<path d="M1315 1041 c-3 -5 -2 -12 3 -15 5 -3 9 1 9 9 0 17 -3 19 -12 6z"/>
<path d="M1110 1029 c0 -5 5 -7 10 -4 6 3 10 8 10 11 0 2 -4 4 -10 4 -5 0 -10
-5 -10 -11z"/>
<path d="M1133 1016 c-4 -5 -1 -6 7 -1 10 6 12 4 6 -10 -7 -18 -6 -18 14 0 11
10 20 19 20 19 0 7 -43 -1 -47 -8z"/>
<path d="M1016 999 c8 -13 11 -26 16 -86 1 -13 6 -23 10 -23 9 0 4 43 -7 60
-3 5 -3 16 1 22 6 9 10 5 15 -12 6 -22 7 -23 8 -4 1 13 -10 29 -25 39 -17 11
-23 12 -18 4z"/>
<path d="M1110 990 c-9 -6 -10 -10 -3 -10 6 0 15 5 18 10 8 12 4 12 -15 0z"/>
<path d="M1273 985 c0 -8 4 -12 9 -9 5 3 6 10 3 15 -9 13 -12 11 -12 -6z"/>
<path d="M990 971 c-6 -12 -16 -18 -22 -15 -6 4 -8 3 -4 -4 3 -6 2 -13 -4 -17
-5 -3 -10 -1 -10 6 0 7 -9 4 -22 -9 -23 -21 -26 -22 -53 -22 -8 0 -15 -4 -15
-8 0 -5 7 -9 15 -9 8 0 15 4 15 8 0 16 34 1 41 -18 10 -28 -33 -50 -52 -27
-11 13 -10 15 2 14 23 -4 39 0 39 8 0 4 -11 8 -25 8 -14 0 -25 -4 -25 -10 0
-5 -7 -1 -16 10 -8 10 -13 14 -10 7 4 -6 0 -14 -6 -16 -9 -4 -8 -6 2 -6 9 -1
16 -10 17 -21 1 -11 -2 -18 -7 -15 -7 4 -7 -24 0 -32 2 -2 3 -9 4 -15 1 -15
36 -24 36 -9 0 6 -8 8 -17 4 -10 -3 -15 -3 -11 2 4 4 2 15 -5 23 -10 13 -8 14
11 8 16 -5 24 -3 28 8 3 9 10 16 16 16 5 0 6 -5 2 -12 -4 -7 -3 -8 5 -4 6 4 9
11 7 15 -8 12 40 34 55 26 8 -6 10 -4 4 4 -4 7 -16 11 -26 8 -11 -3 -19 -1
-19 3 0 17 20 21 42 9 21 -11 22 -11 9 5 -9 11 -23 15 -36 12 -15 -4 -22 -1
-22 8 0 15 34 18 52 5 6 -4 17 -3 25 2 12 8 11 9 -4 7 -10 -2 -21 3 -23 10 -3
6 1 10 9 9 7 -2 9 -2 5 1 -4 2 -3 10 4 18 7 8 9 17 6 20 -3 3 -10 -4 -17 -15z
m-100 -142 c0 -18 -18 -9 -23 12 -4 16 -3 18 9 8 8 -6 14 -15 14 -20z"/>
<path d="M1093 955 c0 -8 4 -12 9 -9 4 3 8 9 8 15 0 5 -4 9 -8 9 -5 0 -9 -7
-9 -15z"/>
<path d="M1110 921 c0 -16 28 -33 35 -21 4 6 1 9 -7 8 -7 -2 -12 3 -10 10 1 6
-2 12 -8 12 -5 0 -10 -4 -10 -9z"/>
<path d="M1151 927 c2 -1 13 -9 24 -17 19 -14 19 -14 6 3 -7 9 -18 17 -24 17
-6 0 -8 -1 -6 -3z"/>
<path d="M1214 901 c-22 -10 -55 -34 -72 -52 -34 -36 -33 -21 -18 -281 2 -37
0 -65 -5 -62 -5 3 -9 -2 -9 -12 0 -38 -71 -60 -88 -26 -10 18 -6 70 7 87 5 5
13 24 18 40 13 39 -10 72 -57 80 -19 3 -37 8 -42 11 -5 3 -15 0 -23 -6 -8 -7
-15 -9 -15 -4 0 4 -7 -1 -15 -12 -20 -26 -18 -119 3 -170 19 -47 66 -105 100
-123 12 -6 22 -9 22 -5 0 3 8 0 17 -7 11 -10 14 -10 9 -1 -4 6 -2 12 3 12 6 0
11 -4 11 -8 0 -5 17 -8 38 -7 26 1 36 6 34 16 -5 19 -24 41 -30 34 -3 -2 1
-11 7 -19 9 -11 9 -16 0 -22 -8 -5 -9 -3 -4 6 5 9 2 10 -14 5 -13 -4 -21 -2
-21 5 0 6 5 8 11 4 7 -4 9 1 7 12 -2 11 -10 18 -17 16 -7 -1 -10 2 -7 7 9 13
32 8 56 -14 24 -21 27 -9 4 16 -17 18 -12 39 9 39 7 0 6 -4 -3 -10 -8 -5 -12
-12 -8 -15 9 -10 45 16 59 42 7 13 17 23 22 23 5 0 4 -7 -3 -15 -7 -8 -8 -15
-2 -15 5 0 15 6 21 14 10 12 9 17 -6 24 -10 5 -25 7 -33 5 -13 -4 -13 -3 0 6
8 5 17 8 21 5 4 -2 14 7 23 20 9 15 12 26 5 30 -5 2 -4 3 3 2 7 -2 12 -9 11
-15 -3 -12 10 -15 20 -4 4 3 1 13 -6 21 -10 13 -9 14 2 7 11 -6 13 -4 8 8 -5
14 -3 15 18 5 13 -6 22 -15 18 -21 -3 -5 -9 -4 -13 3 -5 9 -9 9 -14 1 -4 -6
-2 -11 4 -11 7 0 9 -7 6 -16 -4 -10 -2 -13 6 -8 7 4 8 3 4 -5 -6 -9 -11 -9
-22 0 -9 7 -14 8 -14 1 0 -27 43 -23 54 4 3 9 1 12 -4 9 -13 -8 -13 8 0 21 11
11 2 26 -25 43 -20 12 -20 12 0 6 18 -4 21 0 20 30 0 19 -4 35 -10 35 -5 0 -4
4 3 9 8 4 13 11 13 15 -3 19 2 27 32 57 17 18 26 29 18 24 -9 -5 -12 -4 -8 2
3 5 19 8 36 5 33 -5 48 -44 24 -63 -7 -7 -12 -17 -11 -23 1 -6 -12 -26 -30
-43 -19 -18 -30 -37 -27 -43 4 -6 11 -8 16 -5 5 4 9 2 9 -4 0 -13 51 -6 60 9
4 6 10 11 14 10 4 -1 10 0 14 3 4 2 1 2 -5 1 -7 -2 -18 7 -24 19 -11 19 -10
20 3 10 8 -7 18 -10 21 -6 4 3 13 0 22 -7 10 -8 15 -9 15 -1 0 6 -5 11 -11 11
-5 0 -7 5 -4 10 5 8 12 7 23 -2 15 -11 15 -11 4 3 -13 17 -6 53 9 44 4 -3 6
-12 2 -20 -3 -8 -1 -15 5 -15 11 0 11 18 -2 38 -5 8 -2 20 8 31 15 17 13 21
-26 64 -23 26 -48 47 -55 47 -7 0 -13 4 -13 9 0 15 -61 34 -120 37 -38 2 -69
-3 -96 -15z m246 -57 c0 -8 -19 -13 -24 -6 -3 5 1 9 9 9 8 0 15 -2 15 -3z m5
-24 c-3 -5 -12 -10 -18 -10 -7 0 -6 4 3 10 19 12 23 12 15 0z m44 -62 c-11 -9
-19 -20 -19 -23 1 -3 -1 -11 -4 -18 -5 -9 -7 -9 -12 1 -3 6 -10 9 -15 6 -6 -3
-3 -11 7 -19 16 -12 16 -13 -4 -24 -14 -7 -23 -8 -27 -1 -11 17 -24 11 -22
-10 1 -11 6 -20 11 -20 6 0 3 -7 -6 -16 -12 -12 -20 -14 -36 -5 -10 6 -23 7
-27 3 -5 -4 -5 -1 -1 6 8 14 37 12 49 -3 5 -6 7 -4 4 5 -2 8 -9 15 -15 15 -7
0 -12 3 -12 8 0 4 2 7 5 7 3 0 14 9 25 20 21 21 46 19 34 -2 -4 -7 -2 -8 5 -4
8 6 9 12 2 20 -6 7 -8 16 -4 19 3 4 1 7 -4 7 -6 0 -13 -6 -16 -12 -2 -7 -8
-10 -12 -5 -5 4 0 14 11 21 14 11 21 11 26 3 7 -11 12 -3 9 15 0 4 5 5 12 2 8
-3 14 2 14 11 0 9 -6 14 -14 11 -7 -3 -13 -1 -13 5 0 7 11 9 28 5 l27 -6 -24
14 c-17 10 -20 15 -10 18 8 3 22 -4 31 -16 17 -20 17 -22 -3 -38z m-62 21 c2
-16 -1 -19 -9 -11 -5 5 -7 15 -4 21 10 15 12 14 13 -10z m-183 -105 c3 -8 2
-12 -4 -9 -6 3 -10 10 -10 16 0 14 7 11 14 -7z m-20 -32 c3 -5 -1 -9 -9 -9 -8
0 -12 4 -9 9 3 4 7 8 9 8 2 0 6 -4 9 -8z m-21 -37 c-3 -9 -8 -14 -10 -11 -3 3
-2 9 2 15 9 16 15 13 8 -4z m-33 -25 c0 -5 -5 -10 -11 -10 -5 0 -7 5 -4 10 3
6 8 10 11 10 2 0 4 -4 4 -10z m-13 -46 c-3 -3 -12 -4 -19 -1 -8 3 -5 6 6 6 11
1 17 -2 13 -5z m-16 -61 c-12 -20 -14 -14 -5 12 4 9 9 14 11 11 3 -2 0 -13 -6
-23z m-140 -86 c-10 -9 -11 -8 -5 6 3 10 9 15 12 12 3 -3 0 -11 -7 -18z m34
13 c3 -5 1 -10 -4 -10 -6 0 -11 5 -11 10 0 6 2 10 4 10 3 0 8 -4 11 -10z"/>
<path d="M1500 770 c-9 -6 -10 -10 -3 -10 6 0 15 5 18 10 8 12 4 12 -15 0z"/>
<path d="M1093 875 c0 -8 4 -12 9 -9 4 3 8 9 8 15 0 5 -4 9 -8 9 -5 0 -9 -7
-9 -15z"/>
<path d="M759 854 c-10 -13 -10 -17 0 -24 10 -6 8 -10 -8 -15 -12 -4 -21 -14
-20 -23 3 -31 -1 -38 -21 -39 -12 -1 -20 4 -20 14 0 13 -5 12 -25 -7 -14 -13
-25 -19 -25 -14 0 5 -4 3 -9 -5 -5 -8 -8 -27 -6 -42 2 -20 -2 -29 -22 -38 -19
-9 -23 -15 -14 -25 8 -10 5 -19 -14 -40 -13 -14 -19 -26 -12 -26 13 -1 -22
-24 -38 -25 -5 -1 -9 -7 -7 -15 2 -8 -8 -1 -22 15 -14 17 -25 24 -26 18 0 -7
5 -13 11 -13 6 0 1 -9 -12 -21 -21 -18 -22 -20 -4 -14 33 11 39 11 40 -3 0 -7
7 -17 15 -22 8 -5 11 -12 7 -16 -3 -4 -13 -2 -20 4 -8 7 -17 9 -21 5 -4 -4 -4
0 0 10 9 25 -12 21 -30 -5 -9 -13 -16 -17 -16 -9 0 10 -3 11 -14 2 -11 -9 -15
-9 -19 1 -2 7 -8 9 -13 5 -10 -10 15 -27 31 -21 6 3 12 -2 12 -11 0 -13 -6
-12 -34 5 -33 20 -33 20 -23 0 6 -11 16 -20 23 -20 8 0 7 -4 -3 -11 -13 -9
-12 -10 2 -5 10 3 20 1 23 -4 11 -17 27 -11 21 8 -5 15 -4 15 6 1 10 -15 13
-15 31 5 12 14 17 16 14 5 -3 -9 1 -16 8 -16 7 0 10 9 8 21 -4 21 -4 21 12 1
17 -20 17 -20 10 4 -6 18 -4 22 6 15 26 -16 36 -12 31 12 -2 13 -8 24 -12 24
-5 0 -6 -10 -3 -22 4 -22 4 -22 -11 -4 -17 22 -13 36 12 36 15 0 15 2 2 11
-12 8 -11 10 5 7 15 -2 20 -11 19 -30 -1 -15 2 -25 7 -22 4 2 6 11 3 18 -3 8
4 16 15 19 22 5 29 27 10 27 -5 0 -7 -5 -3 -11 4 -7 -1 -10 -11 -7 -22 4 -31
24 -13 26 7 1 24 3 38 4 17 2 25 9 25 22 0 11 6 21 13 23 7 3 10 -1 6 -11 -3
-9 -2 -16 3 -16 5 0 9 9 10 20 1 11 -4 20 -11 20 -18 0 -40 27 -28 34 6 3 12
-1 16 -9 6 -17 26 -20 26 -4 0 5 -4 7 -10 4 -17 -11 -11 7 8 21 21 17 40 18
24 2 -7 -7 -12 -16 -12 -22 0 -5 6 -1 14 10 10 13 11 23 4 31 -8 10 -6 13 7
13 10 0 15 5 12 14 -3 7 -1 18 3 22 5 5 11 18 13 29 2 11 9 31 14 45 6 14 9
29 6 33 -3 4 1 14 7 22 7 9 8 15 2 15 -5 0 -15 -7 -23 -16z m-8 -67 c-10 -9
-11 -8 -5 6 3 10 9 15 12 12 3 -3 0 -11 -7 -18z m-27 -45 c14 8 17 7 13 -3 -2
-8 -10 -13 -16 -11 -6 1 -11 -2 -11 -8 0 -5 5 -10 10 -10 6 0 1 -9 -10 -20
-11 -11 -23 -20 -26 -19 -4 0 -11 -5 -15 -13 -7 -11 -9 -10 -9 1 0 11 -4 9
-14 -5 -13 -16 -13 -21 0 -36 14 -14 14 -17 -3 -27 -15 -9 -16 -12 -3 -20 12
-8 11 -10 -5 -10 -46 -1 -58 -6 -86 -34 -17 -16 -33 -27 -36 -23 -4 3 -1 6 6
6 8 0 11 7 7 15 -3 8 -2 14 2 13 12 -4 53 23 48 31 -3 4 3 17 14 29 11 11 17
28 14 36 -4 9 5 20 23 30 15 8 21 15 13 16 -13 0 -13 1 0 10 12 8 13 11 1 19
-9 6 -10 11 -2 15 6 4 11 2 11 -5 0 -7 3 -9 8 -5 7 7 8 12 11 38 1 7 7 5 19
-5 13 -12 22 -13 36 -5z m-251 -259 c-5 -12 -2 -15 10 -10 9 3 19 1 23 -6 4
-7 4 -9 -1 -5 -5 5 -15 -1 -23 -13 -11 -15 -17 -17 -28 -9 -11 10 -11 16 3 36
18 28 25 31 16 7z"/>
<path d="M678 733 c6 -2 12 -9 12 -14 0 -5 -6 -8 -12 -6 -7 1 -12 -4 -10 -10
1 -7 -3 -13 -9 -13 -5 0 -7 -5 -3 -11 4 -8 9 -7 15 2 7 12 9 11 9 0 0 -11 4
-9 14 4 16 22 5 56 -17 54 -9 0 -9 -2 1 -6z m22 -29 c0 -8 -19 -13 -24 -6 -3
5 1 9 9 9 8 0 15 -2 15 -3z"/>
<path d="M620 650 c-11 -7 -12 -12 -3 -21 12 -12 6 -42 -7 -34 -4 3 -13 -2
-19 -9 -9 -11 -9 -16 0 -22 7 -4 9 -3 5 4 -3 6 -2 13 4 17 5 3 10 0 10 -7 1
-7 6 -3 13 10 7 12 17 19 22 15 6 -4 2 1 -7 13 -14 16 -15 23 -6 32 14 14 9
15 -12 2z"/>
<path d="M456 461 c-4 -5 -2 -12 3 -15 5 -4 12 -2 15 3 4 5 2 12 -3 15 -5 4
-12 2 -15 -3z"/>
<path d="M996 853 c-6 -14 -5 -15 5 -6 7 7 10 15 7 18 -3 3 -9 -2 -12 -12z"/>
<path d="M1070 843 c0 -6 8 -17 18 -24 16 -13 16 -13 2 6 -8 11 -16 22 -17 24
-2 2 -3 0 -3 -6z"/>
<path d="M935 821 c-4 -7 1 -8 12 -4 15 6 16 4 6 -8 -10 -13 -10 -16 1 -16 16
0 15 29 -1 34 -6 2 -14 -1 -18 -6z"/>
<path d="M900 795 c0 -8 2 -15 4 -15 2 0 6 7 10 15 3 8 1 15 -4 15 -6 0 -10
-7 -10 -15z"/>
<path d="M1006 798 c3 -5 9 -7 12 -4 3 3 12 0 21 -6 13 -10 14 -10 4 2 -15 16
-46 23 -37 8z"/>
<path d="M1054 802 c4 -3 14 -7 22 -8 9 -1 13 0 10 4 -4 3 -14 7 -22 8 -9 1
-13 0 -10 -4z"/>
<path d="M974 769 c-3 -6 -2 -15 3 -20 5 -5 9 -1 9 11 0 23 -2 24 -12 9z"/>
<path d="M915 760 c3 -5 8 -10 11 -10 2 0 4 5 4 10 0 6 -5 10 -11 10 -5 0 -7
-4 -4 -10z"/>
<path d="M1040 766 c0 -2 8 -10 18 -17 15 -13 16 -12 3 4 -13 16 -21 21 -21
13z"/>
<path d="M896 747 c3 -10 9 -15 12 -12 3 3 0 11 -7 18 -10 9 -11 8 -5 -6z"/>
<path d="M1530 740 c0 -5 5 -10 11 -10 5 0 7 5 4 10 -3 6 -8 10 -11 10 -2 0
-4 -4 -4 -10z"/>
<path d="M926 719 c4 -8 30 -6 38 2 3 3 -5 5 -19 5 -13 0 -22 -3 -19 -7z"/>
<path d="M994 708 l-19 -23 23 19 c21 18 27 26 19 26 -2 0 -12 -10 -23 -22z"/>
<path d="M1033 711 c0 -11 5 -18 9 -15 4 3 5 11 1 19 -7 21 -12 19 -10 -4z"/>
<path d="M525 600 c-3 -6 1 -7 9 -4 18 7 21 14 7 14 -6 0 -13 -4 -16 -10z"/>
<path d="M653 535 c-3 -9 -3 -18 -1 -21 3 -3 8 4 11 16 6 23 -1 27 -10 5z"/>
<path d="M1226 534 c-3 -9 -2 -22 4 -29 7 -8 2 -19 -15 -35 -14 -13 -25 -18
-25 -12 0 6 -11 1 -24 -11 -35 -33 -24 -97 13 -77 10 5 21 7 24 4 3 -3 8 4 12
15 3 12 19 28 35 36 16 8 32 20 36 26 5 8 3 9 -6 4 -8 -5 -11 -3 -8 6 3 8 11
13 17 12 6 -2 11 2 11 7 0 6 -4 10 -9 10 -14 0 -33 -28 -26 -40 9 -15 -9 -12
-31 6 -10 8 -14 13 -7 10 6 -4 23 5 37 19 15 15 31 23 38 19 7 -4 8 -3 4 4 -5
9 -13 9 -27 2 -15 -8 -19 -7 -19 3 0 8 -6 20 -14 26 -11 9 -15 8 -20 -5z m21
-11 c-4 -3 -2 -12 3 -18 7 -9 5 -17 -7 -26 -16 -13 -17 -12 -5 3 9 11 10 18 2
23 -10 6 -5 25 7 25 4 0 3 -3 0 -7z m-17 -97 c-11 -5 -20 -15 -20 -22 0 -11
-8 -16 -44 -26 -5 -2 -10 7 -11 19 -1 12 2 20 6 17 4 -2 11 6 14 17 7 20 8 20
17 5 10 -17 28 -13 28 7 0 7 -4 6 -10 -3 -5 -8 -10 -10 -10 -4 0 19 12 23 31
11 19 -12 19 -12 -1 -21z"/>
<path d="M1176 411 c-4 -5 -2 -12 3 -15 5 -4 12 -2 15 3 4 5 2 12 -3 15 -5 4
-12 2 -15 -3z"/>
</g>
</svg>
